<svg height="72" viewBox="0 0 72 72" width="72" xmlns="http://www.w3.org/2000/svg" xmlns:xlink="http://www.w3.org/1999/xlink"><clipPath id="a"><path d="m36.073 46.609c11.31 0 21.579 2.313 29.099 6.065.893.445 1.742.91 2.553 1.396v-15.754c0-19.035-14.25-29.231-31.667-29.231s-31.668 10.196-31.668 29.231v15.774c.82-.49 1.682-.961 2.583-1.412 7.52-3.752 17.79-6.069 29.1-6.069"/></clipPath><path d="m36.057 14.712c-3.311 0-6.004-2.469-6.004-5.504 0-3.036 2.693-5.505 6.004-5.505s6.003 2.469 6.003 5.505c.001 3.035-2.693 5.504-6.003 5.504" fill="#1995c0"/><path d="m36.057 5.406c2.455 0 4.445 1.702 4.445 3.802s-1.99 3.802-4.445 3.802-4.445-1.702-4.445-3.802 1.99-3.802 4.445-3.802m0-3.406c-1.88 0-3.679.652-5.063 1.837-1.588 1.357-2.499 3.315-2.499 5.371 0 2.055.911 4.013 2.498 5.37 1.385 1.185 3.184 1.837 5.064 1.837s3.677-.652 5.063-1.837c1.588-1.357 2.498-3.315 2.498-5.37 0-2.056-.911-4.013-2.498-5.371-1.386-1.185-3.182-1.837-5.063-1.837" fill="#222"/><path d="m65.172 52.678c-7.52-3.752-17.789-6.068-29.099-6.068-11.311 0-21.581 2.316-29.101 6.068-.902.451-1.764.922-2.584 1.412l1.98 12.98c.302 1.979 2.176 3.17 3.897 2.475 7.104-2.873 16.07-4.588 25.807-4.588 9.879 0 18.965 1.766 26.115 4.715 1.556.641 3.254-.451 3.522-2.242l2.013-13.354c-.808-.488-1.66-.953-2.55-1.398" fill="#00b6e6"/><path d="m63.357 51.824.724.328.028-.191z" fill="#15477b"/><path d="m8.184 52.098-.148.068z" fill="#ccccce"/><path d="m8.184 52.098-.155.027.007.041z" fill="#15477b"/><path d="m60.2 50.553.499.188.014-.095z" fill="#15477b"/><path d="m16.041 49.236-.634.184z" fill="#ccccce"/><path d="m16.041 49.236-.644.117v.002l.01.062z" fill="#15477b"/><path d="m56.626 49.387.083.023z" fill="#ccccce"/><path d="m56.626 49.387.083.023.001-.008z" fill="#15477b"/><path d="m11.418 50.748-.278.105zm1.461-.525-.564.197z" fill="#ccccce"/><path d="m11.418 50.748-.278.105c.084.158.207.291.353.383zm1.461-.525-.564.197.122.797c.29-.193.472-.553.446-.947z" fill="#15477b"/><path d="m12.315 50.42-.897.328z" fill="#a3a5a5"/><path d="m12.312 50.395-.922.168.028.188.897-.328zm.003.025-.897.328.074.488c.136.082.292.131.457.131l.069-.004c.154-.012.296-.064.418-.146z" fill="#153a63"/><path d="m59.432 50.279.631.225z" fill="#ccccce"/><path d="m59.432 50.279-.016.164.374.041.001-.004.064.012.25.027-.043-.019z" fill="#15477b"/><path d="m59.791 50.48-.001.004.065.008z" fill="#153a63"/><path d="m36.073 46.609c11.31 0 21.579 2.313 29.099 6.065.893.445 1.742.91 2.553 1.396v-15.754c0-19.035-14.25-29.231-31.667-29.231s-31.668 10.196-31.668 29.231v15.774c.82-.49 1.682-.961 2.583-1.412 7.52-3.752 17.79-6.069 29.1-6.069" fill="#00b6e6"/><path clip-path="url(#a)" d="m61.529 45.268c.002-10.158-2.797-18.708-7.359-25.093-3.639-5.095-11.104-9.843-16.427-11.904-1.104-.114-4.979.923-6.13 1.043h-.002c-4.352 1.572-3.501 1.409-5.473 2.607-4.53 2.75-8.379 6.803-11.07 12.311-2.667 5.453-4.2 12.313-4.229 20.731v.502c.006 1.596.065 3.246.18 4.955.01.158.054 1.354.122 1.482.092-.035 11.02-3.756 16.091-4.32 6.524-.725 9.762-.143 14.112-.143s9.191.709 12.816 2.16c3.624 1.446 5.939 2.42 5.939.971v-.053l.008.891 1.168.35.002.76c.17-1.84.252-5.504.252-7.25" fill="#fff"/><path d="m67.725 54.072c-.811-.484-1.66-.949-2.553-1.396-7.436-3.711-17.564-6.008-28.725-6.059v18.346c9.732.045 18.682 1.797 25.742 4.707 1.555.643 3.254-.45 3.521-2.241z" fill="#1995c0"/><path d="m63.188 51.795-1.474 9.783c-.077.508-.313.932-.646 1.232-.33.303-.75.475-1.188.475-.214 0-.431-.041-.646-.129-6.36-2.623-14.412-4.188-23.167-4.188-8.626 0-16.571 1.52-22.891 4.071-.245.101-.491.146-.732.146-.495 0-.972-.194-1.346-.535-.374-.34-.643-.815-.731-1.395l-1.419-9.303-.767.143-.148.066 1.413 9.262c.125.824.519 1.525 1.057 2.014.538.487 1.223.771 1.943.771.35 0 .708-.065 1.056-.207 6.195-2.506 14.042-4.01 22.567-4.01h.005c8.646 0 16.599 1.549 22.831 4.118.32.134.65.195.976.195.662 0 1.292-.262 1.786-.712.493-.448.854-1.095.969-1.853l1.443-9.594-.725-.326zm-3.398-1.311-1.074 7.135c-.065.438-.271.799-.552 1.059-.283.258-.645.406-1.016.406-.186 0-.369-.035-.557-.111-5.64-2.324-12.771-3.709-20.526-3.709-7.641 0-14.68 1.344-20.282 3.607-.21.086-.422.125-.629.125h-.001c-.425 0-.835-.168-1.157-.459-.321-.293-.553-.703-.628-1.199l-.935-6.121c-.123.082-.265.135-.418.146l-.069.004c-.165 0-.321-.049-.457-.131l.957 6.27c.113.746.468 1.377.954 1.818.486.438 1.105.693 1.755.693.316 0 .639-.062.953-.188 5.477-2.215 12.417-3.545 19.958-3.545h.006c7.646 0 14.681 1.37 20.188 3.643.291.121.59.179.883.179.602 0 1.168-.234 1.615-.646.445-.405.771-.989.875-1.676l1.062-7.048-.499-.188-.345-.061zm-43.47-1.298-.279.053-.634.185.647 4.24c.099.646.408 1.196.831 1.58.423.385.961.604 1.528.604.275 0 .556-.054.83-.164 4.613-1.865 10.465-2.985 16.823-2.985h.005c6.449 0 12.377 1.155 17.019 3.069.253.104.516.153.77.153h.002c.522 0 1.021-.207 1.408-.562.392-.354.676-.863.768-1.463l.676-4.482-.083-.021-.839-.149-.68 4.491c-.053.351-.215.638-.438.845s-.516.32-.813.32c-.146-.002-.293-.029-.441-.09-4.771-1.967-10.8-3.138-17.353-3.138-6.459 0-12.408 1.138-17.147 3.052-.169.067-.339.102-.506.102h-.001c-.341 0-.671-.135-.93-.369-.259-.236-.444-.564-.505-.963z" fill="#19a3d2"/><path d="m67.725 54.072v-15.756c0-17.219-11.676-27.169-26.795-28.917 4.906 2.199 9.791 6.085 13.141 10.775 4.562 6.383 7.361 14.935 7.359 25.094 0 1.657-.068 3.896-.221 5.69 1.382.537 2.723 1.101 3.962 1.719.891.446 1.743.911 2.554 1.395zm-23.127-7.006c1.823.19 3.586.469 5.313.777-1.993-.781-3.57-.861-5.313-.777zm13.396 2.762-.523-.301c-.347-.074-.699-.131-1.058-.187.536.158 1.06.322 1.581.488zm1.233.387-.1-.328h1.08c0 .105-3.682-1.52-3.734-1.447l2.348 1.644z" fill="#1995c0"/><path d="m61.43 45.701c.002-10.277-2.797-18.93-7.359-25.388-3.639-5.155-9.088-9.376-14.408-11.461-1.104-.116-3.021-.437-3.021-.437l-.435.035v39.06c1.083.129 2.192.242 3.603.242 4.35 0 6.555-.885 10.18.584 3.361 1.359 5.473 1.238 7.488 1.674l1.869 1.094-.216-.729h1.08c0 .053-.938-.338-1.874-.73-.918-.385-1.834-.77-1.857-.731l3.922 2.772.793.072c.162-1.86.235-4.289.235-6.057" fill="#d1d2d2"/><path d="m36.227 8.804v-1.558c-9.008 0-17.301 2.647-23.384 7.892-6.089 5.235-9.857 13.089-9.843 23.038v15.848l.018.232 1.98 13.043c.173 1.146.722 2.148 1.506 2.861.783.715 1.814 1.15 2.917 1.15.535 0 1.081-.104 1.601-.316 6.883-2.797 15.669-4.496 25.221-4.494 9.69-.002 18.596 1.748 25.521 4.619.491.203 1.01.305 1.52.303 1.037 0 2.009-.414 2.738-1.086.732-.67 1.244-1.609 1.402-2.678l2.012-13.422.021-.232v-15.828c.015-9.949-3.754-17.803-9.845-23.038-6.084-5.244-14.375-7.892-23.382-7.892l-.003 1.558.001 1.56c8.409 0 15.952 2.475 21.348 7.135 5.392 4.668 8.748 11.5 8.763 20.679v15.714l-1.995 13.308c-.057.378-.225.657-.427.845-.205.188-.431.27-.635.27-.104 0-.206-.021-.324-.067-7.379-3.054-16.646-4.854-26.713-4.854-9.921.002-19.066 1.752-26.393 4.726-.153.062-.292.086-.429.086-.277 0-.565-.106-.819-.336-.25-.229-.454-.569-.523-1.024l-1.964-12.942v-15.728c.014-9.179 3.371-16.01 8.762-20.679 5.397-4.66 12.938-7.135 21.348-7.135v-1.558zm32.151 44.247c-.839-.516-1.717-1.012-2.637-1.484-7.742-3.979-18.183-6.391-29.668-6.393-11.487.002-21.927 2.414-29.672 6.393-.929.479-1.819.98-2.667 1.502-.586.361-.769 1.131-.407 1.717s1.129.769 1.715.405c.792-.487 1.625-.957 2.5-1.407 7.296-3.757 17.397-6.121 28.531-6.117 11.133-.004 21.233 2.36 28.526 6.117.863.444 1.688.909 2.473 1.391.587.361 1.354.179 1.715-.407.359-.59.177-1.358-.409-1.717z" fill="#222"/><path d="m36.203 18.37h15.275v23.729h-15.275z" fill="#d1d2d2"/><path d="m25.344 38.785v-3.336h4.583v2.133l1.22 1.238h10.882l1.385-1.445v-6.053l-1.056-1.066h-10.848l-1.748 1.823h-4.418v-13.586h22.191v3.474h-17.608v6.604l1.682-1.754h13.289l3.1 3.233v8.46l-3.528 3.715h-15.86z" fill="#484848"/></svg>