<svg viewBox="0 0 72 72" xmlns="http://www.w3.org/2000/svg" xmlns:xlink="http://www.w3.org/1999/xlink"><radialGradient id="a" cx="25.504" cy="52.209" gradientUnits="userSpaceOnUse" r="18.765"><stop offset="0" stop-color="#7d2b04"/><stop offset="1" stop-color="#701a00"/></radialGradient><linearGradient id="b"><stop offset="0" stop-color="#86360e"/><stop offset="1" stop-color="#7d2b04"/></linearGradient><radialGradient id="c" cx="35.594" cy="55.688" gradientUnits="userSpaceOnUse" r="19.286" xlink:href="#b"/><radialGradient id="d" cx="45.198" cy="54.099" gradientUnits="userSpaceOnUse" r="17.023"><stop offset="0" stop-color="#994f24"/><stop offset="1" stop-color="#86360e"/></radialGradient><linearGradient id="e"><stop offset="0" stop-color="#fff"/><stop offset="1" stop-color="#fff" stop-opacity="0"/></linearGradient><linearGradient id="f" gradientUnits="userSpaceOnUse" x1="30.498" x2="50.298" xlink:href="#e" y1="65.116" y2="46.156"/><radialGradient id="g" cx="54.809" cy="46.694" gradientUnits="userSpaceOnUse" r="19.537"><stop offset="0" stop-color="#a55d31"/><stop offset="1" stop-color="#994f24"/></radialGradient><radialGradient id="h" cx="56.069" cy="36.138" gradientUnits="userSpaceOnUse" r="17.649"><stop offset="0" stop-color="#ad6537"/><stop offset="1" stop-color="#a55d31"/></radialGradient><radialGradient id="i" cx="57.329" cy="21.958" gradientUnits="userSpaceOnUse" r="15.146"><stop offset="0" stop-color="#b67242"/><stop offset="1" stop-color="#ad6537"/></radialGradient><linearGradient id="j" gradientUnits="userSpaceOnUse" x1="73.787" x2="43.955" xlink:href="#e" y1="34.786" y2="25.123"/><radialGradient id="k" cx="48.979" cy="16.129" gradientUnits="userSpaceOnUse" r="14.818"><stop offset="0" stop-color="#c3804e"/><stop offset="1" stop-color="#b67242"/></radialGradient><radialGradient id="l" cx="40.786" cy="10.3" gradientUnits="userSpaceOnUse" r="14.971"><stop offset="0" stop-color="#cd8d5a"/><stop offset="1" stop-color="#c3804e"/></radialGradient><radialGradient id="m" cx="31.287" cy="34.75" gradientUnits="userSpaceOnUse" r="27.322"><stop offset="0" stop-color="#762400"/><stop offset="1" stop-color="#ffed82" stop-opacity=".19"/></radialGradient><radialGradient id="n" cx="9.817" cy="17.031" gradientUnits="userSpaceOnUse" r="26.758"><stop offset="0" stop-color="#db9a60"/><stop offset="1" stop-color="#cd8d5a"/></radialGradient><linearGradient id="o"><stop offset="0" stop-color="#b06a3b"/><stop offset="1" stop-color="#ffed82" stop-opacity=".19"/></linearGradient><linearGradient id="p" gradientUnits="userSpaceOnUse" x1="29.954" x2="17.454" xlink:href="#o" y1="55.218" y2="6.479"/><linearGradient id="q" gradientUnits="userSpaceOnUse" x1="13.452" x2="36.351" xlink:href="#o" y1="37.398" y2="25.073"/><radialGradient id="r" cx="14.726" cy="40.974" gradientUnits="userSpaceOnUse" r="6.413"><stop offset="0" stop-color="#e4824d"/><stop offset="1" stop-color="#7d2b04"/></radialGradient><radialGradient id="s" cx="-1.556" cy="31.826" gradientUnits="userSpaceOnUse" r="18.427"><stop offset="0" stop-color="#ffcf96"/><stop offset=".721" stop-color="#fbb061"/><stop offset="1" stop-color="#e59653"/></radialGradient><radialGradient id="t" cx="15.375" cy="17.212" gradientUnits="userSpaceOnUse" r="1.883" xlink:href="#b"/><linearGradient id="u" gradientUnits="userSpaceOnUse" x1="2.329" x2="16.867" xlink:href="#e" y1="4.586" y2="19.545"/><linearGradient id="v" gradientUnits="userSpaceOnUse" x1="17.085" x2="19.326" xlink:href="#e" y1="-4.484" y2="16.174"/><linearGradient id="w" gradientUnits="userSpaceOnUse" x1="50.043" x2="19.056" xlink:href="#e" y1="47.236" y2="19.61"/><path d="m32.9 38.1c8.3 3.9 5.8 12.3-.9 15 .6.3 1.5.2 1.9.2-5.8 4.6-16.4 5.9-25.9 2.1 9.2 14.4 24.6 11.4 28.9 7 9.8-10.1 11.8-23.2-1.7-29.6-1.9 3.7-2.3 5.3-2.3 5.3z" fill="url(#a)"/><path d="m36.4 33.4c-.4-.1-.9-.2-1.3-.3-1.8 3.5-2.2 5-2.2 5 6.6 1 8.6 6.1 7.7 11.4.6 0 1.9-.7 2.1-.9-1.5 7.4-9.7 15.2-19.2 17.3 5.9.8 11.2-1.2 13.5-3.5 9.5-9.8 11.7-22.4-.6-29z" fill="#98522d" opacity=".34"/><path d="m32.9 38.1c6.7.3 9.2 5.1 8.8 10.5.5-.2 1-.5 1.2-.8-.8 8.4-8.8 17.7-19.7 19.7 13.8 4.9 23.2 1.6 28.4-11.1 5.3-12.8-8.2-22.7-17.4-23.6-3.3 1.3-1.3 5.3-1.3 5.3z" fill="url(#c)"/><path d="m51.6 56.4c5.3-12.8-8.2-22.7-17.4-23.6-3.3 1.3-1.3 5.3-1.3 5.3 13.2-.6 19.8 10.1 13.3 23.4.4-.1 2.2-1 2.5-1.8-.8 2.4-2 4.5-3.6 6.3 2.6-2.2 4.8-5.4 6.5-9.6z" fill="#98522d" opacity=".23"/><path d="m32.9 38.1c13.2-1.1 19.5 9.5 14.9 21.6.4-.1 1.1-.3 1.3-.6-1.1 4.1-3.4 7.2-5.9 10.1 26.5-5.7 20.8-39.4-7.9-38.1-9.5.7-2.4 7-2.4 7z" fill="url(#d)"/><path d="m47.8 59.7c.4-.1 1.1-.3 1.3-.6-1 3.7-2.9 6.5-5 9.1 0 0 3.7-3.3 5.9-9.8-.2.3-1 .5-1.3.6 3.5-8.4.5-17-7.8-19.9 7.5 2.9 10.4 11.3 6.9 20.6z" fill="url(#f)"/><path d="m55.9 44.1c.5-.5.9-1.1 1-1.8 2.5 3.7 2.8 10.3 1.7 16 5.6-11.8-3.2-28.1-23.2-27.2-1.4.1-2.5.3-3.2.6-.4 3.1.7 6.4.7 6.4 11.6-1.8 19.1.9 23 6z" fill="#98522d" opacity=".22"/><path d="m32.9 38.1c11.5-2.3 19.2 0 23.3 4.9.3-.3.7-.8.8-1.3 3.3 4.5 3.7 12.7 1.7 19.5 22.1-21.5-.8-39-25.9-32.6-2.1 3.7.1 9.5.1 9.5z" fill="url(#g)"/><path d="m50.9 32.6c0-1.1-.5-2.1-.9-2.5 9.8.7 15.1 7.3 17.5 14-.2-12.5-17-20.1-34.8-15.5-2.1 3.7.1 9.5.1 9.5.4-.1.9-.2 1.3-.2 6.9-1.5 11.5-5.4 16.8-5.3z" fill="#98522d" opacity=".14"/><path d="m32.9 38.1c7.6-1.7 11.3-7 16.9-7.2 0-.3-.2-.7-.3-1 11 .1 16.9 6.8 19.3 14.3 6.4-21.1-13.8-34.4-37.6-18.1-5.9 4.5 1.7 12 1.7 12z" fill="url(#h)"/><path d="m50.5 23.9c-.4-.6-.8-.7-1.1-.9 4.8-3.6 10.4-2.9 16.1 1.4-6.1-6.6-17.9-8-31.1-.3-.4.6-.7 1.2-1.1 1.8-3.7 5-3.2 8.3-2.2 10.3.9 1.2 1.7 2 1.7 2 7.7-2.9 13-10.2 17.7-14.3z" fill="#98522d" opacity=".2"/><path d="m32.9 38.1c7.5-3.1 12.2-10.4 16.8-14.6-.2-.3-.8-.7-1.1-.8 4.1-3.1 10.8-4.1 19.4 2.6-5.7-17.2-23.2-21.8-35 .5-5.9 8.7-.1 12.3-.1 12.3z" fill="url(#i)"/><path d="m68 25.3c-7.9-7.2-16.3-5.9-20.2-2.6.3.1.9.4 1.1.8-2.7 2.8-5.5 6.7-8.9 10.1 3.8-3.3 6.8-7.3 9.7-10-.2-.3-.8-.7-1.1-.8 4.1-3.2 10.8-4.2 19.4 2.5z" fill="url(#j)"/><path d="m52.8 11.8c-.1-.2-1.5-.3-1.9-.3 1.5-.5 2.3-.5 4-.5-7.1-1.6-15.4 2.5-21.9 14.8-1.8 2.6-2.5 4.8-2.6 6.5.5 2.1 1.3 4.2 2.5 5.8 13.8-5.9 5.3-23.1 19.9-26.3z" fill="#98522d" opacity=".14"/><path d="m58.4 10.9c-3-.7-6.6-.7-9.3.4.4 0 1 .1 1.1.3-12.2 3.9-3.7 20.1-17.3 26.5-4.7-5.9-4-18.1-4-18.1s9.3-27.2 29.5-9.1z" fill="url(#k)"/><path d="m38.4 15.5c-.7.2-1.1.6-1.3.8-.5-4.4.2-8 5.7-11.3-9.4 2-13.8 15-13.8 15v1.7c2.7 3.8 4 16.4 4 16.4 9-4.7 6.8-15.6 5.4-22.6z" fill="#98522d" opacity=".19"/><path d="m32.9 38.1c8.9-5 6.6-15.1 5-22.1-.6.2-1.1.6-1.3.8-.7-4.9.1-9.8 7.8-13.5 0 0-23.6-7.7-17.9 17.5 4.1-1.3 6.4 17.3 6.4 17.3z" fill="url(#l)"/><path d="m62.9 22.1c1.6.8 3.3 1.8 5.1 3.2-3.1-9.3-9.6-14.9-16.8-14.6 2.3-.5 4.9-.4 7.2.2-7.4-6.6-13.3-7.2-17.8-5.3 1-.8 2.2-1.6 3.7-2.3 0 0-23.6-7.7-17.9 17.5.9-.3 6.4 17.2 6.4 17.2 8.3 3.9 5.8 12.3-.9 15 .6.3 1.5.2 1.9.2-5.8 4.6-16.4 5.9-25.9 2.1 5.8 9.1 14.1 11.2 20.5 10.5-1.7.7-3.5 1.3-5.4 1.7 10.5 3.7 18.4 2.7 23.9-3.6-1.1 1.9-2.4 3.6-3.8 5.2 9.4-2 14.8-7.6 16.5-13.9-.2 2-.5 4-1.1 5.9 8.5-8.2 10.3-15.9 8-21.8.9 1.5 1.6 3.1 2.1 4.8 3.2-9.7.4-17.8-5.7-22z" fill="url(#m)"/><path d="m37.1 29.1c-.4.4-.8.6-1.3.7 1-7.4-9-16.9-4.2-26.6-4.4 1.8-7.7 6.5-5.1 17.7 4.1-1.4 6.4 17.2 6.4 17.2 3.7-2.4 4.4-6.2 4.2-9z" fill="#98522d" opacity=".06"/><path d="m25 36.2c3 .1 5.7.8 7.9 1.9 3.1-2.5 4-5.4 3.8-8.1-.4.3-.9.5-1.3.5 1-8-9.9-18.2-3.3-28.2-5.3.6-10.4 2.7-14.2 4.9-6.3 3.6-11.7 8.9-9.6 13 1.6 3.1 4.9 11.5 8.9 17.2 2.2-.9 4.9-1.3 7.8-1.2z" fill="url(#n)"/><path d="m25 36.2c3 .1 5.7.8 7.9 1.9 2.6-2.2 3.7-4.7 3.5-7.4-.4.3-1.2.4-1.6.4.3-2.6 0-5.4-1.1-8.3-.8-2.1-2.7-6.9-9.8-10.6 15.8 12.8-6 22.1-9.3 13.8-3-7.5-4.8-6.4-6.3-5.8 1.6 3.1 4.9 11.5 8.9 17.2 2.2-.9 4.9-1.3 7.8-1.2z" fill="url(#p)"/><path d="m28 35.1s3.2-2 4.9-5.4c-4.8 3.8-15.4 5.9-19-3.7 0 0 .8 4.4 0 6 1 1.9 2.1 3.8 3.2 5.5 2.2-.9 5-1.3 7.9-1.2 3 .1 5.7.8 7.9 1.9-1.5-3.3-4.9-3.1-4.9-3.1z" fill="url(#q)"/><path d="m18.8 36.9c0-1.5.2-3.1.9-3.8 0 0-11.1 3.9-11.2 5.7 0 1.5 2.2 3.5 2.9 4.1.6-2.8 3.5-5 7.4-6z" fill="url(#r)"/><path d="m8.3 20.2c-9.5 5.2-8.1 22.1 3.8 23.9-1.1-2.3-1.5-5.5 7.6-11.1-6.8-1.5-5.4-14.7-11.4-12.8z" fill="url(#s)"/><path d="m5.3 31.5c-1.4-.6-1.2 2.8 0 3.9-.1-1.8 1.3-3.4 0-3.9z" fill="#fbb040" opacity=".34"/><path d="m19.1 15.3c-4.1.5-6.4 3.2-6.8 4.1s2.4 2.1 4.5 1c1.9-1.1.1-3.6.1-3.6s2.2-.8 2.2-1.5z" fill="#98522d" opacity=".34"/><path d="m12.8 18.6c.1 1 1 1.9 2 1.9 1.1 0 2-.9 2-2 0-.9-.6-1.7-1.5-2-1.2.7-2 1.5-2.5 2.1z" fill="url(#t)"/><circle cx="15.8" cy="17.8" fill="#d0905b" r=".6"/><path d="m32.1 2.3c-5.3.6-10.4 2.7-14.2 4.9-6.3 3.6-11.7 8.9-9.6 13-9.5 5.2-8.1 22.1 3.8 23.9-12.4-4.5-10.5-19-1.7-23.9.2-3.9 7.5-7.5 14.1-6.4-3.7-3.4-7.4-2.2-7.4-2.2s3.4-6.9 15-9.3z" fill="url(#u)"/><path d="m8.7 15.9c-1.2 2.5 1.2 2.7 4.5-.2s11-7.8 17.2-.2c-5.1-8.6-18.2-6.9-21.7.4z" fill="url(#v)"/><path d="m14.4 22.8c0 2.6 2.6 7.4 9.9 4.5s3.8-10.6.4-12-6.6 1.1-6.4 4.1c.4 3.1-3.9 1.5-3.9 3.4z" fill="url(#w)"/></svg>