<svg height="72" viewBox="0 0 72 72" width="72" xmlns="http://www.w3.org/2000/svg"><path d="m32.792 50.74c0-1.795 1.456-3.25 3.252-3.25 1.797 0 3.252 1.455 3.252 3.25" fill="#fff" stroke="#21003d" stroke-miterlimit="10" stroke-width="4.069"/><path d="m29.345 54.39h13.397c2.08 0 3.768 1.687 3.768 3.768v3.079s9.551-6.836 9.552-6.834c-.268-7.89-2.294-15.171-4.907-21.404-.517-1.233-1.058-2.427-1.611-3.573l3.616 1.721c-2.244-3.867-4.854-6.575-7.279-8.461l-.111-.085c-.805-.619-1.588-1.148-2.331-1.598.931 1.971 1.885 4.251 2.783 6.84.802 2.308 4.509 17.09 2.459 23.99h-25.467c-1.578-7.917 1.657-21.683 2.459-23.99.899-2.589 1.854-4.869 2.782-6.84-.741.449-1.524.979-2.33 1.598l-.112.085c-2.424 1.886-5.033 4.594-7.277 8.461l3.615-1.721c-.554 1.146-1.094 2.34-1.611 3.573-2.613 6.233-4.897 21.392-4.897 21.392l9.736 6.978v-3.21c-.001-2.083 1.687-3.769 3.766-3.769zm2.889-13.539 3.81 3.518 3.81-3.518c-.363-6.387-2.054-25.028-2.34-26.731 1.018.354 2.491.971 4.182 1.996-2.943-6.234-5.651-9.371-5.651-9.371s-2.709 3.137-5.651 9.371c1.69-1.025 3.163-1.643 4.182-1.996-.289 1.702-1.979 20.344-2.342 26.731z" fill="#fff" stroke="#21003d" stroke-miterlimit="10" stroke-width="4.069"/><path d="m29.345 54.39h13.397c2.08 0 3.768 1.687 3.768 3.768v3.079c4.854-3.474 9.551-6.836 9.552-6.834-.268-7.89-2.294-15.171-4.907-21.404-.517-1.233-1.058-2.427-1.611-3.573l3.616 1.721c-2.244-3.867-4.854-6.575-7.279-8.461l-.111-.085c-.805-.619-1.588-1.148-2.331-1.598.931 1.971 1.885 4.251 2.783 6.84.802 2.308 4.509 17.09 2.459 23.99h-25.467c-1.578-7.917 1.657-21.683 2.459-23.99.899-2.589 1.854-4.869 2.782-6.84-.741.449-1.524.979-2.33 1.598l-.112.085c-2.424 1.886-5.033 4.594-7.277 8.461l3.615-1.721c-.554 1.146-1.094 2.34-1.611 3.573-2.613 6.233-4.901 21.396-4.897 21.392l9.736 6.978v-3.21c-.001-2.083 1.687-3.769 3.766-3.769z" fill="#ffa378"/><path d="m27.428 22.146s-8.235 12.085-8.951 30.701l6.713 7.877-9.13-6.444s1.93-17.667 6.291-24.854l-2.979 1.313c0-.001 3.4-6.264 8.056-8.593z" fill="#ff4e32"/><path d="m32.234 40.851 3.81 3.518 3.81-3.518c-.363-6.387-2.054-25.028-2.34-26.731 1.018.354 2.491.971 4.182 1.996-2.943-6.234-5.651-9.371-5.651-9.371s-2.709 3.137-5.651 9.371c1.69-1.025 3.163-1.643 4.182-1.996-.289 1.702-1.979 20.344-2.342 26.731z" fill="#ffa378"/><path d="m36.044 44.368 3.81-3.518c-.363-6.387-2.054-25.028-2.34-26.731 1.018.354 2.491.971 4.182 1.996-2.943-6.234-5.651-9.371-5.651-9.371m-3.253 43.996c0-1.795 1.456-3.25 3.252-3.25 1.797 0 3.252 1.455 3.252 3.25" fill="#ff4e32"/><path d="m23.295 45.725h25.497" fill="#d9d9d9" stroke="#21003d" stroke-miterlimit="10" stroke-width="2.034"/><path d="m40.399 55.33c0 2.405-1.95 4.354-4.355 4.354s-4.355-1.949-4.355-4.354" fill="#fff" stroke="#21003d" stroke-miterlimit="10" stroke-width="4.069"/><path d="m40.399 55.33c0 2.405-1.95 4.354-4.355 4.354s-4.355-1.949-4.355-4.354" fill="#ffa378"/><circle cx="36.044" cy="63.629" fill="#fff" r="1.627" stroke="#21003d" stroke-miterlimit="10" stroke-width="4.069"/><circle cx="36.044" cy="63.629" fill="#ffa378" r="1.627"/><g fill="none" stroke="#21003d" stroke-miterlimit="10" stroke-width="1.017"><path d="m29.345 54.39h13.397c2.08 0 3.768 1.687 3.768 3.768v3.079c4.854-3.474 9.551-6.836 9.552-6.834-.268-7.89-2.294-15.171-4.907-21.404-.517-1.233-1.058-2.427-1.611-3.573l3.616 1.721c-2.244-3.867-4.854-6.575-7.279-8.461l-.111-.085c-.805-.619-1.588-1.148-2.331-1.598.931 1.971 1.885 4.251 2.783 6.84.802 2.308 4.509 17.09 2.459 23.99h-25.467c-1.578-7.917 1.657-21.683 2.459-23.99.899-2.589 1.854-4.869 2.782-6.84-.741.449-1.524.979-2.33 1.598l-.112.085c-2.424 1.886-5.033 4.594-7.277 8.461l3.615-1.721c-.554 1.146-1.094 2.34-1.611 3.573-2.613 6.233-4.901 21.396-4.897 21.392l9.736 6.978v-3.21c-.001-2.083 1.687-3.769 3.766-3.769z" stroke-linecap="round" stroke-linejoin="round"/><path d="m32.234 40.851 3.81 3.518 3.81-3.518c-.363-6.387-2.054-25.028-2.34-26.731 1.018.354 2.491.971 4.182 1.996-2.943-6.234-5.651-9.371-5.651-9.371s-2.709 3.137-5.651 9.371c1.69-1.025 3.163-1.643 4.182-1.996-.289 1.702-1.979 20.344-2.342 26.731z"/></g></svg>