<svg version="1.1" id="Layer_1" xmlns="http://www.w3.org/2000/svg" xmlns:xlink="http://www.w3.org/1999/xlink" x="0" y="0" viewBox="0 0 150 150" xml:space="preserve" enable-background="new 0 0 150 150"><style type="text/css">.st0{fill:#384c6d}.st1{fill:#222}.st2{fill:#14487c}.st3{fill:#cccccd}.st4{fill:#a3a5a5}.st5{fill:#173b63}.st6{clip-path:url(#SVGID_2_)}.st7{fill:#fff}.st8{fill:#293b54}.st9{fill:#67819e}.st10{fill:#d2d3d3}.st11{fill:#494949}</style><title>FLF-Generic-Jersey-Hats-015</title><g id="Layer_2"><g id="Layer_2-2"><path class="st0" d="M74.5,27.5c-6.8,0.3-12.6-5-13-11.8c0.3-6.9,6.1-12.2,13-11.9c6.9-0.3,12.7,5,13,11.9 C87.3,22.5,81.5,27.8,74.5,27.5"/><path class="st1" d="M74.5,7.4c4.9-0.3,9.2,3.4,9.6,8.3c-0.4,4.9-4.7,8.5-9.6,8.1c-4.9,0.4-9.2-3.3-9.6-8.1 C65.3,10.7,69.6,7.1,74.5,7.4 M74.5,0.1c-4,0-7.9,1.4-11,4c-6.4,5.4-7.2,15-1.8,21.4c0.5,0.6,1.1,1.2,1.8,1.8 c6.4,5.3,15.5,5.3,21.9,0c6.4-5.4,7.2-15,1.8-21.4c-0.5-0.6-1.1-1.2-1.8-1.8C82.4,1.4,78.6,0,74.5,0.1"/><path class="st0" d="M137.4,109.5c-16.2-8.1-38.4-13.1-62.9-13.1s-46.6,5-62.9,13.1c-1.9,1-3.8,2-5.6,3.1l4.3,28.2 c0.4,3.4,3.5,5.9,6.9,5.5c0.5-0.1,1-0.2,1.4-0.3c17.8-6.8,36.7-10.2,55.8-9.9c19.2-0.2,38.4,3.2,56.3,10.2c3,1.1,6.2-0.4,7.3-3.4 c0.2-0.5,0.3-1,0.3-1.5l4.5-28.7C141.2,111.6,139.4,110.6,137.4,109.5"/><path class="st2" d="M133.5,107.7l1.6,0.7v-0.4L133.5,107.7z"/><path class="st3" d="M14.3,108.3H14H14.3"/><path class="st2" d="M14.3,108.3H14l0,0H14.3"/><path class="st2" d="M126.7,104.9l1.1,0.4v-0.2L126.7,104.9z"/><path class="st3" d="M31.3,102.1l-1.4,0.4L31.3,102.1"/><path class="st2" d="M31.3,102.1l-1.4,0.3l0,0l0,0L31.3,102.1"/><path class="st3" d="M118.9,102.4h0.2H118.9z"/><path class="st2" d="M118.9,102.4h0.2H118.9z"/><path class="st3" d="M21.3,105.3l-0.6,0.3L21.3,105.3z M24.4,104.2l-1.2,0.4L24.4,104.2z"/><path class="st2" d="M21.3,105.3l-0.6,0.3c0.2,0.3,0.4,0.6,0.8,0.8L21.3,105.3z M24.4,104.2l-1.2,0.4l0.3,1.7 C24.1,105.9,24.5,105.1,24.4,104.2L24.4,104.2"/><path class="st4" d="M23.2,104.6l-1.9,0.7L23.2,104.6z"/><path class="st5" d="M23.2,104.6l-2,0.4v0.4L23.2,104.6L23.2,104.6z M23.2,104.6l-1.9,0.7l0.2,1.1c0.3,0.2,0.6,0.3,1,0.3h0.2 c0.3,0,0.6-0.1,0.9-0.3L23.2,104.6z"/><path class="st3" d="M125.1,104.3l1.4,0.5L125.1,104.3"/><path class="st2" d="M125.1,104.3v0.3h0.8l0,0h0.6l0,0L125.1,104.3"/><path class="st5" d="M125.8,104.8"/><path class="st0" d="M74.6,96.4c24.4,0,46.6,5,62.9,13.1c1.9,1,3.8,2,5.5,3.1V78.5c0-41.1-30.8-63.2-68.4-63.2S6.2,37.3,6.2,78.5 v34.2c1.8-1.1,3.6-2.1,5.6-3.1c16.3-8.1,38.5-13.1,62.9-13.1"/><g><g><defs><path id="SVGID_1_" d="M74.6,96.4c24.4,0,46.6,5,62.9,13.1c1.9,1,3.8,2,5.5,3.1V78.5c0-41.1-30.8-63.2-68.4-63.2 S6.2,37.3,6.2,78.5v34.2c1.8-1.1,3.6-2.1,5.6-3.1c16.3-8.1,38.5-13.1,62.9-13.1"/></defs><clipPath id="SVGID_2_"><use xlink:href="#SVGID_1_" overflow="visible"/></clipPath><g class="st6"><path class="st7" d="M129.6,93.5c0.5-19.3-5.1-38.3-15.9-54.2c-7.9-11.1-24-21.3-35.5-25.7c-4.4,0.5-8.9,1.3-13.2,2.3l0,0 c-4.2,1.1-8.2,3-11.8,5.6C42.8,27.8,34.5,37,29.2,48c-6.4,14-9.6,29.4-9.2,44.8v1c0,3.4,0,7,0.4,10.7c0,1,0.1,2.1,0.3,3.1 c0.2,0,23.8-8.1,34.8-9.4C69.6,96.7,76.6,98,86,98c9.4-0.1,18.8,1.5,27.7,4.7c7.8,3.1,12.8,5.2,12.8,2.1v1.8l2.5,0.8v1.7 c0.3-4,0.5-11.9,0.5-15.6"/></g></g></g><path class="st8" d="M143,112.6c-1.8-1-3.6-2.1-5.5-3.1c-16.1-8-37.9-13-62-13.1V136c19-0.2,37.9,3.3,55.6,10.2 c3,1.1,6.2-0.4,7.3-3.4c0.2-0.5,0.3-1,0.3-1.5L143,112.6z"/><path class="st9" d="M133.2,107.6l-3.1,21.1c-0.2,1-0.6,2-1.4,2.7c-0.7,0.7-1.6,1-2.6,1c-0.5,0-1-0.1-1.4-0.3 c-16-6.2-33-9.3-50.1-9c-16.9-0.2-33.7,2.8-49.6,8.8c-0.5,0.2-1,0.3-1.6,0.3c-1.1,0-2.1-0.4-2.9-1.2c-0.9-0.8-1.4-1.9-1.6-3.1 l-3.1-20.1l-1.7,0.3h-0.3l3.1,20c0.2,1.7,1.1,3.2,2.3,4.3c1.1,1.2,2.6,2,4.3,2.1c0.8,0,1.6-0.2,2.3-0.4 c15.6-5.9,32.1-8.9,48.8-8.7l0,0c16.9-0.2,33.6,2.8,49.3,8.9c2,0.9,4.4,0.4,5.9-1.1c1.1-1.1,1.9-2.5,2.1-4l3.1-20.7l-1.6-0.7 L133.2,107.6z M125.8,104.8l-2.3,15.4c-0.1,0.9-0.6,1.7-1.2,2.3c-0.6,0.6-1.4,0.9-2.2,0.9c-0.4,0-0.8-0.1-1.2-0.3 c-14.1-5.5-29.2-8.2-44.4-8c-15-0.2-29.8,2.5-43.8,7.8c-0.4,0.2-0.9,0.3-1.4,0.3l0,0c-0.9,0-1.8-0.4-2.5-1 c-0.7-0.7-1.2-1.6-1.3-2.6l-2-13.2c-0.3,0.2-0.6,0.3-0.9,0.3h-0.2c-0.4,0-0.7-0.1-1-0.3l2.1,13.5c0.2,1.5,1,2.9,2.1,3.9 c1,0.9,2.4,1.5,3.8,1.5c0.7,0,1.4-0.2,2.1-0.4c13.8-5.2,28.4-7.8,43.1-7.7l0,0c14.9-0.2,29.7,2.5,43.6,7.9 c0.6,0.3,1.3,0.4,1.9,0.4c1.3,0,2.6-0.5,3.5-1.4c1-1,1.7-2.2,1.9-3.6l2.3-15.2l-1.1-0.4l-0.8-0.2 C126,104.8,125.8,104.8,125.8,104.8z M32,102h-0.6l-1.4,0.4l1.3,9.3c0.2,1.3,0.8,2.5,1.8,3.4c0.9,0.8,2.1,1.3,3.3,1.3 c0.6,0,1.2-0.1,1.8-0.4c11.6-4.4,23.9-6.6,36.4-6.5l0,0c12.6-0.2,25,2.1,36.8,6.6c0.5,0.2,1.1,0.3,1.7,0.3l0,0 c1.2,0,2.3-0.4,3.1-1.2c0.9-0.8,1.5-1.9,1.7-3.1l1.4-9.7h-0.3l-1.8-0.3l-1.3,9.7c-0.1,0.7-0.4,1.3-0.9,1.8 c-0.5,0.4-1.1,0.7-1.8,0.7c-0.3,0-0.6-0.1-0.9-0.2c-12-4.7-24.7-7-37.5-6.8c-12.6-0.1-25.2,2.1-37,6.6c-0.3,0.2-0.7,0.2-1.1,0.2 l0,0c-0.7,0-1.4-0.3-2-0.8c-0.6-0.6-1-1.3-1.1-2.1L32,102z"/><path class="st8" d="M143,112.6V78.5c0-37.2-25.3-58.7-57.9-62.6c11.3,5.2,21.1,13.2,28.4,23.3c10.8,16,16.4,34.9,15.9,54.2 c0,3.6-0.2,8.4-0.5,12.3c3,1.2,5.9,2.4,8.5,3.7C139.4,110.5,141.2,111.5,143,112.6z M92.9,97.5c3.9,0.4,7.7,1,11.5,1.7 c-3.6-1.5-7.5-2.1-11.4-1.8L92.9,97.5z M122,103.3l-1.1-0.7l-2.3-0.4L122,103.3z M124.7,104.1l-0.2-0.7h2.3c0,0.2-8-3.1-8.1-3.1 l5.1,3.6L124.7,104.1z"/><path class="st10" d="M129.4,94.4c0.5-19.5-5-38.7-15.9-54.9c-7.9-11-18.7-19.6-31.3-24.8c-2.4-0.3-6.5-0.9-6.5-0.9h-0.9v84.5 c2.6,0.3,5.2,0.5,7.8,0.5c9.4,0,14.2-1.9,21.9,1.3c5.2,1.9,10.7,3.1,16.2,3.6l4,2.4l-0.5-1.6h2.3c-1.4-0.5-2.7-1-4.1-1.6 c-1.3-0.6-2.6-1.1-4-1.6l8.5,6h1.7c0.3-4,0.5-9.4,0.5-13.1"/><path class="st1" d="M75.1,14.7v-3.4c-19.6,0-37.5,5.7-50.7,17.1S3.1,56.7,3.1,78.2v34.7l4.3,28.2c0.3,2.4,1.4,4.6,3.1,6.3 c1.7,1.6,3.9,2.4,6.3,2.5c1.2,0,2.4-0.2,3.5-0.7c17.5-6.7,36.1-10.1,54.8-9.8c18.8-0.2,37.6,3.1,55.1,10c3.1,1.3,6.7,0.6,9.2-1.7 c1.7-1.5,2.8-3.6,3.1-5.8l4.3-29V78.2c0-21.5-8.1-38.5-21.2-49.8S94.4,11.3,75.1,11.3v6.8c18.1,0,34.4,5.4,46.1,15.4 s18.8,25,18.9,44.7v34l-4.5,28.7c-0.1,0.7-0.4,1.3-0.9,1.8c-0.4,0.4-0.9,0.6-1.4,0.6c-0.2,0-0.5,0-0.7,0 c-18.3-7.2-37.9-10.8-57.6-10.5c-19.5-0.3-38.9,3.2-57.2,10.2c-0.3,0.1-0.6,0.2-0.9,0.2c-0.7,0-1.3-0.3-1.8-0.7 c-0.6-0.6-1-1.4-1.1-2.2l-4.3-28V78.2c0-19.8,7.3-34.4,18.8-44.7s28.1-15.5,46.5-15.5C75.1,18.1,75.1,14.7,75.1,14.7z M144.5,110.3c-1.8-1.1-3.7-2.2-5.7-3.1C122,98.5,99.4,93.3,74.6,93.3s-47.4,5.2-64.1,13.8c-2,1-3.9,2.1-5.8,3.1 c-1.3,0.7-1.8,2.3-1.2,3.6c0.7,1.3,2.3,1.8,3.6,1.2c0.1-0.1,0.2-0.1,0.3-0.2c1.7-1,3.5-2.1,5.4-3.1c15.6-8.1,37.5-13.2,61.6-13.2 c24.1,0,45.9,5.1,61.6,13.2c1.9,1,3.6,2,5.4,3.1c1.2,0.8,2.9,0.4,3.7-0.8c0,0,0,0,0,0c0.7-1.3,0.3-2.8-0.9-3.6H144.5z"/><polygon class="st11" points="58.6,38.8 97.6,38.8 96.1,51.1 57.1,51.1"/><polygon class="st11" points="56.5,55.8 56.7,55.8 95.5,55.8 94.2,65.9 69.8,65.9 69.2,70.9 93.6,70.9 92.1,82.6 53.2,82.6"/></g></g></svg>