<svg viewBox="0 0 72 72" xmlns="http://www.w3.org/2000/svg"><g fill="#468ca5"><path d="m51.8 31.5h-8.6l9.1 27.9c.1.3.1.5-.1.8s-.5.4-.8.4c-.1 0-.3 0-.5-.2l-6.3-4.5-6.9 5 8.4 6.1c1.6 1.1 3.4 1.7 5.3 1.7 2.9 0 5.6-1.4 7.4-3.8 1.7-2.3 2.1-5.3 1.2-8.1z"/><path d="m44.8 43.2-23.7 17.2c-.2.2-.4.2-.5.2-.3 0-.6-.2-.8-.4s-.2-.5-.1-.8l2.4-7.4-6.9-5-3.2 9.9c-.9 2.8-.5 5.7 1.2 8.1s4.5 3.8 7.4 3.8c1.9 0 3.7-.6 5.3-1.7l21.6-15.7z"/><path d="m34.3 48.4-23.8-17.3c-.1-.1-.5-.4-.3-1s.7-.6.8-.6h7.7l2.6-8.1h-10.3c-4 0-7.4 2.4-8.6 6.2s.1 7.7 3.3 10.1l21.6 15.7z"/><path d="m26.1 39.9 9.1-27.9c0-.2.2-.6.8-.6s.8.5.8.6l2.4 7.4h8.6l-3.2-9.9c-1.2-3.8-4.6-6.3-8.6-6.3s-7.4 2.4-8.6 6.2l-8.3 25.4z"/><path d="m69.5 27.6c-1.2-3.8-4.6-6.2-8.6-6.2h-26.7l-2.6 8.1h29.4c.2 0 .6 0 .8.6s-.2.9-.3 1l-6.3 4.5 2.6 8.1 8.4-6.1c3.3-2.3 4.6-6.2 3.3-10z"/></g></svg>